<?xml version="1.0" encoding="UTF-8"?>
<svg id="Layer_1" data-name="Layer 1" xmlns="http://www.w3.org/2000/svg" viewBox="0 0 580.95 580.95">
  <defs>
    <style>
      .cls-1 {
        stroke-width: 3px;
      }

      .cls-1, .cls-2, .cls-3 {
        stroke: #fff;
        stroke-miterlimit: 10;
      }

      .cls-1, .cls-3 {
        fill: none;
      }

      .cls-2 {
        font-size: 74.37px;
      }

      .cls-2, .cls-4 {
        font-family: OmnesCyrillicCnd-Bold, 'OmnesCyrillic Cond';
        font-weight: 700;
      }

      .cls-2, .cls-4, .cls-5 {
        fill: #fff;
      }

      .cls-3 {
        stroke-width: 5px;
      }

      .cls-4 {
        font-size: 72px;
      }

      .cls-6 {
        fill: #b9c4ff;
      }

      .cls-6, .cls-5 {
        stroke-width: 0px;
      }
    </style>
  </defs>
  <path class="cls-1" d="M495.52,338.27c-21.61,92.28-104.43,161-203.3,161s-185.08-71.57-204.55-166.72"/>
  <path class="cls-1" d="M88.92,242.67c22.13-94.01,106.72-160.99,203.3-160.99s181.17,66.99,203.3,160.99"/>
  <path class="cls-5" d="M292.22,152.13c36.95,0,71.7,14.39,97.83,40.52,26.13,26.13,40.52,60.87,40.52,97.83s-14.39,71.7-40.52,97.83c-26.13,26.13-60.87,40.52-97.83,40.52s-71.7-14.39-97.83-40.52-40.52-60.87-40.52-97.83,14.39-71.7,40.52-97.83c26.13-26.13,60.87-40.52,97.83-40.52M292.22,149.13c-78.06,0-141.35,63.28-141.35,141.35s63.28,141.35,141.35,141.35,141.35-63.28,141.35-141.35-63.28-141.35-141.35-141.35h0Z"/>
  <text class="cls-4" transform="translate(160.88 215.55) rotate(-55.39)"><tspan x="0" y="0">B</tspan></text>
  <text class="cls-4" transform="translate(180.9 185.54) rotate(-39.87)"><tspan x="0" y="0">O</tspan></text>
  <text class="cls-4" transform="translate(210.47 160.54) rotate(-24.3)"><tspan x="0" y="0">B</tspan></text>
  <text class="cls-4" transform="translate(242.71 145.41) rotate(-9.12)"><tspan x="0" y="0">A</tspan></text>
  <text class="cls-4" transform="translate(279.02 140.42) rotate(.93)"><tspan x="0" y="0"> </tspan></text>
  <text class="cls-4" transform="translate(288.82 140.48) rotate(4.07)"><tspan x="0" y="0"> </tspan></text>
  <text class="cls-4" transform="translate(298.54 141.14) rotate(8.15)"><tspan x="0" y="0"> </tspan></text>
  <text class="cls-4" transform="translate(308.21 142.5) rotate(12.26)"><tspan x="0" y="0"> </tspan></text>
  <text class="cls-4" transform="translate(317.73 144.53) rotate(16.38)"><tspan x="0" y="0"> </tspan></text>
  <text class="cls-4" transform="translate(327.08 147.25) rotate(20.5)"><tspan x="0" y="0"> </tspan></text>
  <text class="cls-4" transform="translate(336.22 150.63) rotate(24.61)"><tspan x="0" y="0"> </tspan></text>
  <text class="cls-4" transform="translate(345.09 154.66) rotate(28.72)"><tspan x="0" y="0"> </tspan></text>
  <text class="cls-4" transform="translate(353.65 159.32) rotate(32.82)"><tspan x="0" y="0"> </tspan></text>
  <text class="cls-4" transform="translate(361.86 164.58) rotate(36.9)"><tspan x="0" y="0"> </tspan></text>
  <text class="cls-4" transform="translate(369.66 170.4) rotate(40.96)"><tspan x="0" y="0"> </tspan></text>
  <text class="cls-4" transform="translate(377.06 176.79) rotate(45.04)"><tspan x="0" y="0"> </tspan></text>
  <text class="cls-4" transform="translate(383.97 183.66) rotate(49.11)"><tspan x="0" y="0"> </tspan></text>
  <text class="cls-4" transform="translate(390.36 191) rotate(53.18)"><tspan x="0" y="0"> </tspan></text>
  <text class="cls-4" transform="translate(396.23 198.79) rotate(57.26)"><tspan x="0" y="0"> </tspan></text>
  <text class="cls-4" transform="translate(401.53 206.98) rotate(61.36)"><tspan x="0" y="0"> </tspan></text>
  <text class="cls-4" transform="translate(406.23 215.51) rotate(65.46)"><tspan x="0" y="0"> </tspan></text>
  <text class="cls-4" transform="translate(410.3 224.36) rotate(69.58)"><tspan x="0" y="0"> </tspan></text>
  <text class="cls-4" transform="translate(413.73 233.48) rotate(73.7)"><tspan x="0" y="0"> </tspan></text>
  <text class="cls-4" transform="translate(416.49 242.82) rotate(77.82)"><tspan x="0" y="0"> </tspan></text>
  <text class="cls-4" transform="translate(418.57 252.33) rotate(81.92)"><tspan x="0" y="0"> </tspan></text>
  <text class="cls-4" transform="translate(419.97 261.97) rotate(86)"><tspan x="0" y="0"> </tspan></text>
  <text class="cls-4" transform="translate(420.59 271.53) rotate(89.07)"><tspan x="0" y="0"> </tspan></text>
  <text class="cls-4" transform="translate(420.7 281.47) rotate(94.08)"><tspan x="0" y="0"> </tspan></text>
  <text class="cls-4" transform="translate(420.04 291.19) rotate(98.16)"><tspan x="0" y="0"> </tspan></text>
  <text class="cls-2" transform="translate(286.97 492.69) rotate(-.53)"><tspan x="0" y="0"> </tspan></text>
  <text class="cls-2" transform="translate(301.09 492.45) rotate(-4.55)"><tspan x="0" y="0"> </tspan></text>
  <text class="cls-2" transform="translate(315.19 491.21) rotate(-8.59)"><tspan x="0" y="0"> </tspan></text>
  <text class="cls-2" transform="translate(329.17 488.99) rotate(-12.62)"><tspan x="0" y="0"> </tspan></text>
  <text class="cls-2" transform="translate(344.57 486.1) rotate(-20.61)"><tspan x="0" y="0">T</tspan></text>
  <text class="cls-2" transform="translate(385.49 469.19) rotate(-30.82)"><tspan x="0" y="0">I</tspan></text>
  <text class="cls-2" transform="translate(412.03 453.85) rotate(-43.5)"><tspan x="0" y="0">M</tspan></text>
  <text class="cls-2" transform="translate(454.57 409.95) rotate(-59.13)"><tspan x="0" y="0">E</tspan></text>
  <text class="cls-2" transform="translate(475.43 372.22) rotate(-67.71)"><tspan x="0" y="0"> </tspan></text>
  <text class="cls-2" transform="translate(480.68 359.13) rotate(-71.69)"><tspan x="0" y="0"> </tspan></text>
  <text class="cls-2" transform="translate(485 345.73) rotate(-75.67)"><tspan x="0" y="0"> </tspan></text>
  <text class="cls-2" transform="translate(488.39 331.99) rotate(-79.67)"><tspan x="0" y="0"> </tspan></text>
  <text class="cls-2" transform="translate(490.82 318.09) rotate(-83.66)"><tspan x="0" y="0"> </tspan></text>
  <text class="cls-2" transform="translate(492.27 304.03) rotate(-87.67)"><tspan x="0" y="0"> </tspan></text>
  <text class="cls-2" transform="translate(492.73 289.9) rotate(-91.69)"><tspan x="0" y="0"> </tspan></text>
  <text class="cls-2" transform="translate(492.2 275.79) rotate(-95.71)"><tspan x="0" y="0"> </tspan></text>
  <text class="cls-2" transform="translate(490.68 261.73) rotate(-99.74)"><tspan x="0" y="0"> </tspan></text>
  <text class="cls-2" transform="translate(488.17 247.81) rotate(-103.77)"><tspan x="0" y="0"> </tspan></text>
  <text class="cls-2" transform="translate(484.7 234.12) rotate(-107.78)"><tspan x="0" y="0"> </tspan></text>
  <text class="cls-2" transform="translate(480.29 220.72) rotate(-111.76)"><tspan x="0" y="0"> </tspan></text>
  <text class="cls-2" transform="translate(474.98 207.71) rotate(-115.69)"><tspan x="0" y="0"> </tspan></text>
  <text class="cls-2" transform="translate(468.75 195.02) rotate(-119.67)"><tspan x="0" y="0"> </tspan></text>
  <text class="cls-2" transform="translate(461.67 182.81) rotate(-123.67)"><tspan x="0" y="0"> </tspan></text>
  <text class="cls-2" transform="translate(453.74 171.11) rotate(-127.68)"><tspan x="0" y="0"> </tspan></text>
  <text class="cls-2" transform="translate(444.99 159.97) rotate(-131.72)"><tspan x="0" y="0"> </tspan></text>
  <text class="cls-2" transform="translate(435.51 149.5) rotate(-135.74)"><tspan x="0" y="0"> </tspan></text>
  <text class="cls-2" transform="translate(425.3 139.71) rotate(-139.77)"><tspan x="0" y="0"> </tspan></text>
  <text class="cls-2" transform="translate(414.44 130.67) rotate(-143.78)"><tspan x="0" y="0"> </tspan></text>
  <text class="cls-2" transform="translate(403 122.43) rotate(-147.78)"><tspan x="0" y="0"> </tspan></text>
  <text class="cls-2" transform="translate(390.98 114.99) rotate(-151.78)"><tspan x="0" y="0"> </tspan></text>
  <text class="cls-2" transform="translate(378.48 108.4) rotate(-155.77)"><tspan x="0" y="0"> </tspan></text>
  <text class="cls-2" transform="translate(365.57 102.71) rotate(-159.75)"><tspan x="0" y="0"> </tspan></text>
  <text class="cls-2" transform="translate(352.33 97.94) rotate(-163.72)"><tspan x="0" y="0"> </tspan></text>
  <text class="cls-2" transform="translate(338.73 94.09) rotate(-167.71)"><tspan x="0" y="0"> </tspan></text>
  <text class="cls-2" transform="translate(324.94 91.2) rotate(-171.7)"><tspan x="0" y="0"> </tspan></text>
  <text class="cls-2" transform="translate(310.93 89.27) rotate(-175.71)"><tspan x="0" y="0"> </tspan></text>
  <text class="cls-2" transform="translate(296.83 88.32) rotate(-179.72)"><tspan x="0" y="0"> </tspan></text>
  <text class="cls-2" transform="translate(282.69 88.37) rotate(176.25)"><tspan x="0" y="0"> </tspan></text>
  <text class="cls-2" transform="translate(268.59 89.4) rotate(172.23)"><tspan x="0" y="0"> </tspan></text>
  <text class="cls-2" transform="translate(254.57 91.43) rotate(168.19)"><tspan x="0" y="0"> </tspan></text>
  <text class="cls-2" transform="translate(240.76 94.44) rotate(164.17)"><tspan x="0" y="0"> </tspan></text>
  <text class="cls-2" transform="translate(227.21 98.39) rotate(160.18)"><tspan x="0" y="0"> </tspan></text>
  <text class="cls-2" transform="translate(214.21 103.19) rotate(156.28)"><tspan x="0" y="0"> </tspan></text>
  <text class="cls-2" transform="translate(201.17 109.04) rotate(152.28)"><tspan x="0" y="0"> </tspan></text>
  <text class="cls-2" transform="translate(188.74 115.7) rotate(148.3)"><tspan x="0" y="0"> </tspan></text>
  <text class="cls-2" transform="translate(176.78 123.22) rotate(144.29)"><tspan x="0" y="0"> </tspan></text>
  <text class="cls-2" transform="translate(165.36 131.56) rotate(140.26)"><tspan x="0" y="0"> </tspan></text>
  <text class="cls-2" transform="translate(154.53 140.72) rotate(136.22)"><tspan x="0" y="0"> </tspan></text>
  <text class="cls-2" transform="translate(144.42 150.56) rotate(132.2)"><tspan x="0" y="0"> </tspan></text>
  <text class="cls-2" transform="translate(135.01 161.11) rotate(128.18)"><tspan x="0" y="0"> </tspan></text>
  <text class="cls-2" transform="translate(126.36 172.29) rotate(124.17)"><tspan x="0" y="0"> </tspan></text>
  <text class="cls-2" transform="translate(118.53 184.03) rotate(120.18)"><tspan x="0" y="0"> </tspan></text>
  <text class="cls-2" transform="translate(111.53 196.28) rotate(116.19)"><tspan x="0" y="0"> </tspan></text>
  <text class="cls-2" transform="translate(105.4 209) rotate(112.2)"><tspan x="0" y="0"> </tspan></text>
  <text class="cls-2" transform="translate(100.17 222.1) rotate(108.22)"><tspan x="0" y="0"> </tspan></text>
  <text class="cls-2" transform="translate(95.86 235.55) rotate(104.24)"><tspan x="0" y="0"> </tspan></text>
  <text class="cls-2" transform="translate(92.5 249.25) rotate(100.25)"><tspan x="0" y="0"> </tspan></text>
  <text class="cls-2" transform="translate(90.1 263.15) rotate(96.25)"><tspan x="0" y="0"> </tspan></text>
  <text class="cls-2" transform="translate(88.67 277.22) rotate(92.24)"><tspan x="0" y="0"> </tspan></text>
  <text class="cls-2" transform="translate(88.23 291.35) rotate(88.22)"><tspan x="0" y="0"> </tspan></text>
  <text class="cls-2" transform="translate(88.78 305.5) rotate(84.19)"><tspan x="0" y="0"> </tspan></text>
  <text class="cls-2" transform="translate(90.32 319.52) rotate(80.17)"><tspan x="0" y="0"> </tspan></text>
  <text class="cls-2" transform="translate(92.85 333.45) rotate(76.14)"><tspan x="0" y="0"> </tspan></text>
  <text class="cls-2" transform="translate(96.34 347.13) rotate(72.13)"><tspan x="0" y="0"> </tspan></text>
  <text class="cls-2" transform="translate(100.78 360.53) rotate(68.15)"><tspan x="0" y="0"> </tspan></text>
  <text class="cls-2" transform="translate(106.12 373.57) rotate(64.2)"><tspan x="0" y="0"> </tspan></text>
  <text class="cls-2" transform="translate(112.36 386.21) rotate(60.24)"><tspan x="0" y="0"> </tspan></text>
  <text class="cls-2" transform="translate(119.45 398.4) rotate(56.25)"><tspan x="0" y="0"> </tspan></text>
  <text class="cls-2" transform="translate(127.4 410.09) rotate(52.23)"><tspan x="0" y="0"> </tspan></text>
  <text class="cls-2" transform="translate(136.16 421.21) rotate(48.19)"><tspan x="0" y="0"> </tspan></text>
  <text class="cls-2" transform="translate(145.66 431.66) rotate(44.17)"><tspan x="0" y="0"> </tspan></text>
  <text class="cls-2" transform="translate(155.88 441.44) rotate(40.14)"><tspan x="0" y="0"> </tspan></text>
  <text class="cls-2" transform="translate(166.76 450.46) rotate(36.13)"><tspan x="0" y="0"> </tspan></text>
  <path class="cls-1" d="M144.97,311.04c-17,21.15-47.92,24.51-69.07,7.51-16.92-13.6-19.61-38.34-6.01-55.25,10.88-13.53,30.67-15.68,44.2-4.8,10.83,8.7,12.55,24.54,3.84,35.36-6.96,8.66-19.63,10.04-28.29,3.07-6.93-5.57-8.03-15.7-2.46-22.63,4.46-5.54,12.56-6.42,18.11-1.97,4.43,3.56,5.14,10.05,1.57,14.48-2.85,3.55-8.04,4.11-11.59,1.26-2.84-2.28-3.29-6.43-1.01-9.27"/>
  <path class="cls-1" d="M445.67,311.04c17,21.15,47.92,24.51,69.07,7.51,16.92-13.6,19.61-38.34,6.01-55.25-10.88-13.53-30.67-15.68-44.2-4.8-10.83,8.7-12.55,24.54-3.84,35.36,6.96,8.66,19.63,10.04,28.29,3.07,6.93-5.57,8.03-15.7,2.46-22.63-4.46-5.54-12.56-6.42-18.11-1.97-4.43,3.56-5.14,10.05-1.57,14.48,2.85,3.55,8.04,4.11,11.59,1.26,2.84-2.28,3.29-6.43,1.01-9.27"/>
  <path class="cls-6" d="M221.6,313.64c6.66-17.11,38.77-26.44,142.55,0,0,8.22-.88,31.76-14.67,53.82-19.29,30.87-48.55,34.37-53.38,34.85-6.42-.34-30.22-2.55-50.45-25.6-13.09-14.92-30.85-45.59-24.05-63.07Z"/>
  <circle class="cls-5" cx="256.09" cy="333.68" r="9.2"/>
  <circle class="cls-5" cx="294.61" cy="333.68" r="9.2"/>
  <circle class="cls-5" cx="332.04" cy="333.68" r="9.2"/>
  <circle class="cls-5" cx="276.2" cy="364.45" r="9.2"/>
  <circle class="cls-5" cx="313.02" cy="364.45" r="9.2"/>
  <path class="cls-3" d="M221.75,249.45h141.58c3.89,23.07,7.89,64.61-6.86,104.66-6.54,17.76-13.83,27.24-22.21,33.98-17.9,14.43-38.16,14.3-41.72,14.22-20.7-.44-34.62-10.83-39.02-14.22-5.26-4.05-16.56-13.98-25.91-39.03-14.61-39.18-10.32-77.47-5.86-99.61Z"/>
  <rect class="cls-5" x="292.97" y="196.35" width="15.24" height="54.93" transform="translate(91.42 -87.14) rotate(19.4)"/>
</svg>