<svg id="Layer_1" data-name="Layer 1" xmlns="http://www.w3.org/2000/svg" viewBox="0 0 471.2 420.59"><defs><style>.cls-1{stroke-width:3px}.cls-1,.cls-3{fill:none;stroke:#fff;stroke-miterlimit:10}.cls-4{isolation:isolate}.cls-6{stroke-width:0}.cls-6{fill:#fff}</style></defs><path class="cls-1" d="M435.8 258.09c-21.61 92.28-104.43 161-203.3 161S47.42 347.52 27.95 252.37M29.2 162.49C51.33 68.48 135.92 1.5 232.5 1.5s181.17 66.99 203.3 160.99"/><path class="cls-6" d="M232.5 71.95c36.95 0 71.7 14.39 97.83 40.52s40.52 60.87 40.52 97.83-14.39 71.7-40.52 97.83c-26.13 26.13-60.87 40.52-97.83 40.52s-71.7-14.39-97.83-40.52-40.52-60.87-40.52-97.83 14.39-71.7 40.52-97.83 60.87-40.52 97.83-40.52m0-3c-78.06 0-141.35 63.28-141.35 141.35s63.28 141.35 141.35 141.35 141.35-63.28 141.35-141.35S310.57 68.95 232.5 68.95Z"/><g class="cls-4"><g class="cls-4"><path class="cls-6" d="M106.56 127.55c-1.23 1.78-2.68 2.76-4.35 2.95-1.67.19-3.5-.4-5.47-1.77L70.61 110.7c-1.98-1.36-3.17-2.86-3.59-4.49-.42-1.63-.02-3.34 1.21-5.11l7.16-10.37c2.48-3.59 5.25-5.81 8.3-6.65 3.06-.83 6.16-.16 9.33 2.02 4.11 2.84 5.51 6.46 4.22 10.87 2.14-1.67 4.43-2.47 6.86-2.4 2.43.07 4.83.93 7.2 2.56 3.75 2.59 5.75 5.63 5.99 9.12.25 3.49-1.26 7.59-4.5 12.29l-6.22 9.01Zm-16.95-22.98c1.61-2.33.91-4.53-2.09-6.6-2.73-1.88-4.84-1.73-6.34.44l-2 2.9 8.59 5.93 1.84-2.67ZM104.8 114c.9-1.3 1.19-2.5.87-3.6-.32-1.1-1.31-2.22-2.97-3.36-1.54-1.06-2.86-1.52-3.95-1.37-1.09.15-2.13.94-3.11 2.36l-2.17 3.14 9.01 6.22 2.33-3.38Z"/></g></g><g class="cls-4"><g class="cls-4"><path class="cls-6" d="M122.84 96.84c-5.27-1.04-10.37-4.5-15.3-10.4-4.92-5.89-7.42-11.54-7.5-16.95-.08-5.41 2.19-10.03 6.79-13.88 4.6-3.85 9.55-5.24 14.84-4.19 5.29 1.06 10.38 4.51 15.27 10.37 4.92 5.89 7.43 11.54 7.53 16.93s-2.16 10.01-6.76 13.86c-4.64 3.88-9.6 5.3-14.87 4.26Zm9.44-15.71c.15-1.09-.22-2.49-1.11-4.19-.89-1.7-2.41-3.84-4.56-6.42-2.18-2.62-4.04-4.52-5.57-5.71-1.53-1.19-2.84-1.81-3.95-1.86-1.1-.05-2.15.34-3.15 1.17-1.51 1.26-2.02 2.89-1.54 4.9.48 2 2.31 4.9 5.48 8.7 3.17 3.79 5.7 6.11 7.58 6.94 1.88.83 3.58.62 5.09-.64.99-.83 1.57-1.79 1.71-2.89Z"/></g></g><g class="cls-4"><g class="cls-4"><path class="cls-6" d="M159.41 76.45c-1.97.89-3.72.98-5.25.28-1.53-.7-2.79-2.15-3.78-4.34l-13.07-28.94c-.99-2.19-1.24-4.09-.76-5.7.48-1.61 1.71-2.86 3.68-3.75l11.48-5.19c3.98-1.8 7.5-2.27 10.54-1.4 3.05.86 5.36 3.04 6.94 6.54 2.05 4.55 1.39 8.38-2 11.49 2.7-.32 5.07.17 7.11 1.49s3.66 3.29 4.84 5.91c1.88 4.16 2.02 7.79.42 10.91-1.59 3.12-5 5.85-10.2 8.2l-9.97 4.5Zm-2.64-28.43c2.58-1.17 3.12-3.41 1.62-6.74-1.36-3.02-3.25-3.98-5.65-2.9l-3.21 1.45 4.3 9.51 2.95-1.33Zm8.13 15.92c1.44-.65 2.31-1.53 2.6-2.64.29-1.11.02-2.58-.81-4.42-.77-1.71-1.66-2.78-2.68-3.22-1.01-.44-2.31-.3-3.88.41l-3.48 1.57 4.5 9.97 3.74-1.69Z"/></g></g><g class="cls-4"><g class="cls-4"><path class="cls-6" d="M186.55 64.44c-1.2-.34-2.15-.8-2.84-1.37-.7-.57-1-1.03-.92-1.38l4.09-40.84c.09-1.28.79-2.35 2.11-3.22 1.32-.87 3.42-1.53 6.32-2 2.84-.46 4.99-.47 6.45-.05 1.45.42 2.42 1.23 2.9 2.41l17.22 37.34c.16.36-.02.94-.53 1.72-.51.79-1.29 1.52-2.34 2.2-1.06.68-2.27 1.13-3.65 1.35-1.9.3-3.39-.02-4.49-.96s-2.04-2.32-2.82-4.14l-1.76-4.17-10.31 1.65-.42 4.66c-.21 4.12-1.89 6.43-5.01 6.93-1.47.24-2.8.18-4-.16Zm10.26-38.04-.93 16.92 7.04-1.13-6.11-15.79Z"/></g></g><g class="cls-4"><g class="cls-4"><path class="cls-6" d="m283.05 368.38-4.59 1.73c-3.8 1.43-6.41.29-7.8-3.42l-.26-.7c-1.33-3.53-.09-6.01 3.72-7.44l21.37-8.04c3.85-1.45 6.44-.41 7.77 3.12l.26.7c1.4 3.71.17 6.29-3.68 7.74l-4.32 1.62 10.5 27.91c.71 1.9.79 3.54.22 4.92-.57 1.38-1.78 2.42-3.64 3.12l-1.74.65c-3.39 1.27-5.82-.06-7.31-4.01l-10.5-27.91Z"/></g><g class="cls-4"><path class="cls-3" d="m283.05 368.38-4.59 1.73c-3.8 1.43-6.41.29-7.8-3.42l-.26-.7c-1.33-3.53-.09-6.01 3.72-7.44l21.37-8.04c3.85-1.45 6.44-.41 7.77 3.12l.26.7c1.4 3.71.17 6.29-3.68 7.74l-4.32 1.62 10.5 27.91c.71 1.9.79 3.54.22 4.92-.57 1.38-1.78 2.42-3.64 3.12l-1.74.65c-3.39 1.27-5.82-.06-7.31-4.01l-10.5-27.91Z"/></g></g><g class="cls-4"><g class="cls-4"><path class="cls-6" d="M307.17 351.01c-1.07-1.79-1.46-3.39-1.17-4.8.28-1.41 1.21-2.58 2.79-3.53l1.6-.95c3.32-1.98 6.06-1.16 8.22 2.46l18.56 31.1c1.04 1.75 1.42 3.34 1.12 4.79-.29 1.45-1.25 2.65-2.87 3.62l-1.6.95c-1.58.94-3.06 1.19-4.45.75-1.39-.44-2.6-1.53-3.64-3.28l-18.56-31.1Z"/></g><g class="cls-4"><path class="cls-3" d="M307.17 351.01c-1.07-1.79-1.46-3.39-1.17-4.8.28-1.41 1.21-2.58 2.79-3.53l1.6-.95c3.32-1.98 6.06-1.16 8.22 2.46l18.56 31.1c1.04 1.75 1.42 3.34 1.12 4.79-.29 1.45-1.25 2.65-2.87 3.62l-1.6.95c-1.58.94-3.06 1.19-4.45.75-1.39-.44-2.6-1.53-3.64-3.28l-18.56-31.1Z"/></g></g><g class="cls-4"><g class="cls-4"><path class="cls-6" d="M325.75 341.25c-1.5-1.58-2.29-3.12-2.38-4.61s.54-2.87 1.87-4.13l3.24-3.07c1.22-1.16 2.36-1.81 3.42-1.96 1.05-.15 2.28.18 3.66.99l15.6 8.77-7.89-16.09c-.8-1.49-1.11-2.72-.93-3.68.18-.96.79-1.93 1.84-2.92l3.51-3.33c1.4-1.33 2.86-1.93 4.39-1.81 1.52.13 3.03.98 4.54 2.56l24.68 26c1.47 1.55 2.26 2.98 2.39 4.3.12 1.32-.48 2.61-1.81 3.87l-1.19 1.13c-2.52 2.39-5.23 2.05-8.13-1l-5.58-5.88-11.85-13.57 9.23 17.18c.47.86.79 1.51.95 1.97.16.46.11 1.02-.15 1.68-.26.66-.88 1.45-1.85 2.37-.97.92-1.78 1.49-2.44 1.7-.66.21-1.18.23-1.58.06-.4-.17-1.05-.54-1.94-1.13l-16.47-9.79 12.73 12.22 5.58 5.88c1.47 1.55 2.26 2.98 2.39 4.3s-.5 2.63-1.86 3.92l-1.19 1.12c-1.29 1.23-2.61 1.74-3.93 1.53-1.33-.21-2.71-1.07-4.14-2.58l-24.68-26Z"/></g><g class="cls-4"><path class="cls-3" d="M325.75 341.25c-1.5-1.58-2.29-3.12-2.38-4.61s.54-2.87 1.87-4.13l3.24-3.07c1.22-1.16 2.36-1.81 3.42-1.96 1.05-.15 2.28.18 3.66.99l15.6 8.77-7.89-16.09c-.8-1.49-1.11-2.72-.93-3.68.18-.96.79-1.93 1.84-2.92l3.51-3.33c1.4-1.33 2.86-1.93 4.39-1.81 1.52.13 3.03.98 4.54 2.56l24.68 26c1.47 1.55 2.26 2.98 2.39 4.3.12 1.32-.48 2.61-1.81 3.87l-1.19 1.13c-2.52 2.39-5.23 2.05-8.13-1l-5.58-5.88-11.85-13.57 9.23 17.18c.47.86.79 1.51.95 1.97.16.46.11 1.02-.15 1.68-.26.66-.88 1.45-1.85 2.37-.97.92-1.78 1.49-2.44 1.7-.66.21-1.18.23-1.58.06-.4-.17-1.05-.54-1.94-1.13l-16.47-9.79 12.73 12.22 5.58 5.88c1.47 1.55 2.26 2.98 2.39 4.3s-.5 2.63-1.86 3.92l-1.19 1.12c-1.29 1.23-2.61 1.74-3.93 1.53-1.33-.21-2.71-1.07-4.14-2.58l-24.68-26Z"/></g></g><g class="cls-4"><g class="cls-4"><path class="cls-6" d="M399.89 321.34c-1.15 1.92-2.55 3.04-4.22 3.37-1.67.33-3.57-.14-5.7-1.41l-28.34-16.94c-2.13-1.27-3.46-2.73-4.01-4.39-.54-1.65-.24-3.44.9-5.35l9.73-16.28c1.07-1.79 2.24-2.88 3.51-3.27 1.27-.39 2.7-.12 4.27.82l.45.27c1.62.97 2.53 2.09 2.75 3.38.21 1.28-.21 2.82-1.28 4.61L371.46 297l6 3.59 3.97-6.64c1.12-1.87 2.27-3.02 3.44-3.44 1.18-.42 2.49-.2 3.94.66l.77.46c1.53.92 2.41 2.02 2.62 3.3.21 1.29-.22 2.84-1.32 4.67l-3.97 6.64 6.51 3.89 6.6-11.04c1.09-1.83 2.23-2.96 3.41-3.38 1.18-.42 2.53-.18 4.06.74l.51.3c1.66.99 2.63 2.15 2.91 3.47.28 1.32-.12 2.88-1.18 4.66l-9.84 16.47Z"/></g><g class="cls-4"><path class="cls-3" d="M399.89 321.34c-1.15 1.92-2.55 3.04-4.22 3.37-1.67.33-3.57-.14-5.7-1.41l-28.34-16.94c-2.13-1.27-3.46-2.73-4.01-4.39-.54-1.65-.24-3.44.9-5.35l9.73-16.28c1.07-1.79 2.24-2.88 3.51-3.27 1.27-.39 2.7-.12 4.27.82l.45.27c1.62.97 2.53 2.09 2.75 3.38.21 1.28-.21 2.82-1.28 4.61L371.46 297l6 3.59 3.97-6.64c1.12-1.87 2.27-3.02 3.44-3.44 1.18-.42 2.49-.2 3.94.66l.77.46c1.53.92 2.41 2.02 2.62 3.3.21 1.29-.22 2.84-1.32 4.67l-3.97 6.64 6.51 3.89 6.6-11.04c1.09-1.83 2.23-2.96 3.41-3.38 1.18-.42 2.53-.18 4.06.74l.51.3c1.66.99 2.63 2.15 2.91 3.47.28 1.32-.12 2.88-1.18 4.66l-9.84 16.47Z"/></g></g><path class="cls-1" d="M85.25 230.86c-17 21.15-47.92 24.51-69.07 7.51-16.92-13.6-19.61-38.34-6.01-55.25 10.88-13.53 30.67-15.68 44.2-4.8 10.83 8.7 12.55 24.54 3.84 35.36-6.96 8.66-19.63 10.04-28.29 3.07-6.93-5.57-8.03-15.7-2.46-22.63 4.46-5.54 12.56-6.42 18.11-1.97 4.43 3.56 5.14 10.05 1.57 14.48-2.85 3.55-8.04 4.11-11.59 1.26a6.593 6.593 0 0 1-1.01-9.27M385.95 230.86c17 21.15 47.92 24.51 69.07 7.51 16.92-13.6 19.61-38.34 6.01-55.25-10.88-13.53-30.67-15.68-44.2-4.8-10.83 8.7-12.55 24.54-3.84 35.36 6.96 8.66 19.63 10.04 28.29 3.07 6.93-5.57 8.03-15.7 2.46-22.63-4.46-5.54-12.56-6.42-18.11-1.97-4.43 3.56-5.14 10.05-1.57 14.48 2.85 3.55 8.04 4.11 11.59 1.26a6.593 6.593 0 0 0 1.01-9.27"/><path d="M161.88 233.46c6.66-17.11 38.77-26.44 142.55 0 0 8.22-.88 31.76-14.67 53.82-19.29 30.87-48.55 34.37-53.38 34.85-6.42-.34-30.22-2.55-50.45-25.6-13.09-14.92-30.85-45.59-24.05-63.07Z" style="stroke-width:0;fill:#b9c4ff"/><circle class="cls-6" cx="196.37" cy="253.5" r="9.2"/><circle class="cls-6" cx="234.89" cy="253.5" r="9.2"/><circle class="cls-6" cx="272.32" cy="253.5" r="9.2"/><circle class="cls-6" cx="216.48" cy="284.27" r="9.2"/><circle class="cls-6" cx="253.3" cy="284.27" r="9.2"/><path d="M162.03 169.27h141.58c3.89 23.07 7.89 64.61-6.86 104.66-6.54 17.76-13.83 27.24-22.21 33.98-17.9 14.43-38.16 14.3-41.72 14.22-20.7-.44-34.62-10.83-39.02-14.22-5.26-4.05-16.56-13.98-25.91-39.03-14.61-39.18-10.32-77.47-5.86-99.61Z" style="stroke-width:5px;fill:none;stroke:#fff;stroke-miterlimit:10"/><path class="cls-6" transform="rotate(-70.6 240.881 143.635)" d="M213.42 136.01h54.93v15.24h-54.93z"/></svg>